<?xml version="1.0" encoding="UTF-8"?><svg xmlns="http://www.w3.org/2000/svg" xmlns:xlink="http://www.w3.org/1999/xlink" fill-opacity="1" color-rendering="auto" color-interpolation="auto" text-rendering="auto" stroke="black" stroke-linecap="square" width="513" stroke-miterlimit="10" shape-rendering="auto" stroke-opacity="1" fill="black" stroke-dasharray="none" font-weight="normal" stroke-width="1" height="422" font-family="'Dialog'" font-style="normal" stroke-linejoin="miter" font-size="12px" stroke-dashoffset="0" image-rendering="auto">
  <!--Generated by ySVG 2.5-->
  <defs id="genericDefs"/>
  <g>
    <defs id="defs1">
      <clipPath clipPathUnits="userSpaceOnUse" id="clipPath1">
        <path d="M0 0 L513 0 L513 422 L0 422 L0 0 Z"/>
      </clipPath>
      <clipPath clipPathUnits="userSpaceOnUse" id="clipPath2">
        <path d="M-9.625 -9.75 L631.625 -9.75 L631.625 517.75 L-9.625 517.75 L-9.625 -9.75 Z"/>
      </clipPath>
      <clipPath clipPathUnits="userSpaceOnUse" id="clipPath3">
        <path d="M-9.625 -10.3949 L631.625 -10.3949 L631.625 517.1051 L-9.625 517.1051 L-9.625 -10.3949 Z"/>
      </clipPath>
      <clipPath clipPathUnits="userSpaceOnUse" id="clipPath4">
        <path d="M-0 0 L-0 24 L24 24 L24 0 Z"/>
      </clipPath>
      <clipPath clipPathUnits="userSpaceOnUse" id="clipPath5">
        <path d="M0 0 L0 24 L24 24 L24 0 Z"/>
      </clipPath>
      <clipPath clipPathUnits="userSpaceOnUse" id="clipPath6">
        <path d="M-9.625 -10.2621 L631.625 -10.2621 L631.625 517.2379 L-9.625 517.2379 L-9.625 -10.2621 Z"/>
      </clipPath>
      <clipPath clipPathUnits="userSpaceOnUse" id="clipPath7">
        <path d="M-9.625 -10.0501 L631.625 -10.0501 L631.625 517.4499 L-9.625 517.4499 L-9.625 -10.0501 Z"/>
      </clipPath>
      <clipPath clipPathUnits="userSpaceOnUse" id="clipPath8">
        <path d="M-9.625 -10.5277 L631.625 -10.5277 L631.625 516.9722 L-9.625 516.9722 L-9.625 -10.5277 Z"/>
      </clipPath>
    </defs>
    <g fill="white" stroke="white">
      <path d="M13.2031 407.2969 L15.9531 407.2969 C16.6406 407.2969 17.1875 407.0938 17.6406 406.6719 C18.1719 406.1875 18.4062 405.625 18.4062 404.8125 C18.4062 403.1719 17.4375 402.25 15.7031 402.25 L12.0938 402.25 L12.0938 411 L13.2031 411 L13.2031 407.2969 ZM13.2031 406.3125 L13.2031 403.2344 L15.5312 403.2344 C16.6094 403.2344 17.2344 403.8125 17.2344 404.7656 C17.2344 405.7344 16.6094 406.3125 15.5312 406.3125 L13.2031 406.3125 ZM22.2697 404.5312 C20.4884 404.5312 19.4416 405.7969 19.4416 407.9062 C19.4416 410.0312 20.4884 411.2812 22.2853 411.2812 C24.0509 411.2812 25.1291 410.0156 25.1291 407.9531 C25.1291 405.7656 24.0978 404.5312 22.2697 404.5312 ZM22.2853 405.4531 C23.4103 405.4531 24.0822 406.375 24.0822 407.9375 C24.0822 409.4219 23.3791 410.3594 22.2853 410.3594 C21.1603 410.3594 20.4728 409.4219 20.4728 407.9062 C20.4728 406.375 21.1603 405.4531 22.2853 405.4531 ZM32.3167 411 L34.1761 404.7188 L33.0511 404.7188 L31.8011 409.6094 L30.5667 404.7188 L29.3324 404.7188 L28.1292 409.6094 L26.848 404.7188 L25.7542 404.7188 L27.5667 411 L28.7074 411 L29.9105 406.0625 L31.1917 411 L32.3167 411 ZM40.4964 408.1875 C40.4964 407.2344 40.4183 406.6562 40.2464 406.1875 C39.8402 405.1562 38.8714 404.5312 37.6995 404.5312 C35.9495 404.5312 34.8245 405.8594 34.8245 407.9375 C34.8245 410.0156 35.9027 411.2812 37.6839 411.2812 C39.1214 411.2812 40.1058 410.4531 40.3714 409.0938 L39.3558 409.0938 C39.0745 409.9219 38.512 410.3594 37.7152 410.3594 C37.0745 410.3594 36.5433 410.0625 36.1995 409.5312 C35.9652 409.1719 35.8714 408.8125 35.8714 408.1875 L40.4964 408.1875 ZM35.887 407.375 C35.9652 406.2188 36.6839 405.4531 37.6839 405.4531 C38.7152 405.4531 39.4183 406.25 39.4183 407.375 L35.887 407.375 ZM41.8403 404.7188 L41.8403 411 L42.856 411 L42.856 407.7344 C42.856 406.2188 43.481 405.5469 44.8716 405.5938 L44.8716 404.5625 C44.6997 404.5469 44.606 404.5312 44.481 404.5312 C43.8247 404.5312 43.3403 404.9219 42.7622 405.8594 L42.7622 404.7188 L41.8403 404.7188 ZM51.1645 408.1875 C51.1645 407.2344 51.0864 406.6562 50.9145 406.1875 C50.5082 405.1562 49.5395 404.5312 48.3676 404.5312 C46.6176 404.5312 45.4926 405.8594 45.4926 407.9375 C45.4926 410.0156 46.5707 411.2812 48.352 411.2812 C49.7895 411.2812 50.7739 410.4531 51.0395 409.0938 L50.0239 409.0938 C49.7426 409.9219 49.1801 410.3594 48.3832 410.3594 C47.7426 410.3594 47.2114 410.0625 46.8676 409.5312 C46.6332 409.1719 46.5395 408.8125 46.5395 408.1875 L51.1645 408.1875 ZM46.5551 407.375 C46.6332 406.2188 47.352 405.4531 48.352 405.4531 C49.3832 405.4531 50.0864 406.25 50.0864 407.375 L46.5551 407.375 ZM57.6178 402.25 L56.6178 402.25 L56.6178 405.5 C56.2115 404.875 55.5397 404.5312 54.6959 404.5312 C53.0553 404.5312 51.9928 405.8438 51.9928 407.8438 C51.9928 409.9688 53.024 411.2812 54.7272 411.2812 C55.5865 411.2812 56.1959 410.9531 56.7272 410.1719 L56.7272 411 L57.6178 411 L57.6178 402.25 ZM54.8678 405.4688 C55.9459 405.4688 56.6178 406.4219 56.6178 407.9219 C56.6178 409.375 55.9303 410.3438 54.8678 410.3438 C53.774 410.3438 53.0397 409.375 53.0397 407.9062 C53.0397 406.4375 53.774 405.4688 54.8678 405.4688 ZM62.329 402.25 L62.329 411 L63.2352 411 L63.2352 410.2031 C63.7196 410.9219 64.3446 411.2812 65.2352 411.2812 C66.8915 411.2812 67.9696 409.9219 67.9696 407.8281 C67.9696 405.7969 66.9384 404.5312 65.2821 404.5312 C64.4071 404.5312 63.7977 404.8594 63.329 405.5625 L63.329 402.25 L62.329 402.25 ZM65.079 405.4688 C66.204 405.4688 66.9227 406.4375 66.9227 407.9375 C66.9227 409.375 66.1727 410.3438 65.079 410.3438 C64.0165 410.3438 63.329 409.375 63.329 407.9062 C63.329 406.4219 64.0165 405.4688 65.079 405.4688 ZM73.0166 404.7188 L71.2823 409.6094 L69.6729 404.7188 L68.5948 404.7188 L70.7198 411.0312 L70.3448 412.0156 C70.1729 412.4688 69.9541 412.625 69.5323 412.625 C69.376 412.625 69.2198 412.6094 69.001 412.5625 L69.001 413.4531 C69.2198 413.5625 69.4229 413.6094 69.6729 413.6094 C70.001 413.6094 70.3448 413.5156 70.6104 413.3125 C70.9229 413.0938 71.1104 412.8281 71.2979 412.3125 L74.0948 404.7188 L73.0166 404.7188 ZM82.3527 404.7188 L80.6183 409.6094 L79.009 404.7188 L77.9308 404.7188 L80.0558 411.0312 L79.6808 412.0156 C79.509 412.4688 79.2902 412.625 78.8683 412.625 C78.7121 412.625 78.5558 412.6094 78.3371 412.5625 L78.3371 413.4531 C78.5558 413.5625 78.759 413.6094 79.009 413.6094 C79.3371 413.6094 79.6808 413.5156 79.9465 413.3125 C80.259 413.0938 80.4465 412.8281 80.634 412.3125 L83.4308 404.7188 L82.3527 404.7188 ZM85.8996 407.0156 L90.0715 407.0156 L90.0715 406.0312 L85.8996 406.0312 L85.8996 403.2344 L90.6496 403.2344 L90.6496 402.25 L84.7746 402.25 L84.7746 411 L85.8996 411 L85.8996 407.0156 ZM92.8254 404.7188 L91.8254 404.7188 L91.8254 411 L92.8254 411 L92.8254 404.7188 ZM92.8254 402.25 L91.8254 402.25 L91.8254 403.5156 L92.8254 403.5156 L92.8254 402.25 ZM95.5207 402.25 L94.5051 402.25 L94.5051 411 L95.5207 411 L95.5207 402.25 ZM102.5128 408.1875 C102.5128 407.2344 102.4347 406.6562 102.2628 406.1875 C101.8566 405.1562 100.8878 404.5312 99.716 404.5312 C97.966 404.5312 96.841 405.8594 96.841 407.9375 C96.841 410.0156 97.9191 411.2812 99.7003 411.2812 C101.1378 411.2812 102.1222 410.4531 102.3878 409.0938 L101.3722 409.0938 C101.091 409.9219 100.5285 410.3594 99.7316 410.3594 C99.091 410.3594 98.5597 410.0625 98.216 409.5312 C97.9816 409.1719 97.8878 408.8125 97.8878 408.1875 L102.5128 408.1875 ZM97.9035 407.375 C97.9816 406.2188 98.7003 405.4531 99.7003 405.4531 C100.7316 405.4531 101.4347 406.25 101.4347 407.375 L97.9035 407.375 ZM108.2786 406.4688 C108.2786 405.2344 107.4505 404.5312 105.9974 404.5312 C104.5443 404.5312 103.5911 405.2812 103.5911 406.4531 C103.5911 407.4375 104.0911 407.9062 105.5911 408.2656 L106.513 408.4844 C107.2161 408.6562 107.4974 408.9062 107.4974 409.3594 C107.4974 409.9531 106.9036 410.3594 106.0286 410.3594 C105.4818 410.3594 105.0286 410.2031 104.7786 409.9375 C104.6224 409.75 104.5599 409.5781 104.4974 409.125 L103.4349 409.125 C103.4818 410.5781 104.2943 411.2812 105.9505 411.2812 C107.5286 411.2812 108.5443 410.5 108.5443 409.2812 C108.5443 408.3438 108.013 407.8281 106.763 407.5312 L105.7943 407.2969 C104.9818 407.1094 104.638 406.8438 104.638 406.4062 C104.638 405.8125 105.1536 405.4531 105.9661 405.4531 C106.7786 405.4531 107.2005 405.7969 107.2318 406.4688 L108.2786 406.4688 Z" stroke="none" clip-path="url(#clipPath1)"/>
    </g>
    <g fill="silver" stroke="silver">
      <path d="M12.2031 406.2969 L14.9531 406.2969 C15.6406 406.2969 16.1875 406.0938 16.6406 405.6719 C17.1719 405.1875 17.4062 404.625 17.4062 403.8125 C17.4062 402.1719 16.4375 401.25 14.7031 401.25 L11.0938 401.25 L11.0938 410 L12.2031 410 L12.2031 406.2969 ZM12.2031 405.3125 L12.2031 402.2344 L14.5312 402.2344 C15.6094 402.2344 16.2344 402.8125 16.2344 403.7656 C16.2344 404.7344 15.6094 405.3125 14.5312 405.3125 L12.2031 405.3125 ZM21.2697 403.5312 C19.4884 403.5312 18.4416 404.7969 18.4416 406.9062 C18.4416 409.0312 19.4884 410.2812 21.2853 410.2812 C23.0509 410.2812 24.1291 409.0156 24.1291 406.9531 C24.1291 404.7656 23.0978 403.5312 21.2697 403.5312 ZM21.2853 404.4531 C22.4103 404.4531 23.0822 405.375 23.0822 406.9375 C23.0822 408.4219 22.3791 409.3594 21.2853 409.3594 C20.1603 409.3594 19.4728 408.4219 19.4728 406.9062 C19.4728 405.375 20.1603 404.4531 21.2853 404.4531 ZM31.3167 410 L33.1761 403.7188 L32.0511 403.7188 L30.8011 408.6094 L29.5667 403.7188 L28.3324 403.7188 L27.1292 408.6094 L25.848 403.7188 L24.7542 403.7188 L26.5667 410 L27.7074 410 L28.9105 405.0625 L30.1917 410 L31.3167 410 ZM39.4964 407.1875 C39.4964 406.2344 39.4183 405.6562 39.2464 405.1875 C38.8402 404.1562 37.8714 403.5312 36.6995 403.5312 C34.9495 403.5312 33.8245 404.8594 33.8245 406.9375 C33.8245 409.0156 34.9027 410.2812 36.6839 410.2812 C38.1214 410.2812 39.1058 409.4531 39.3714 408.0938 L38.3558 408.0938 C38.0745 408.9219 37.512 409.3594 36.7152 409.3594 C36.0745 409.3594 35.5433 409.0625 35.1995 408.5312 C34.9652 408.1719 34.8714 407.8125 34.8714 407.1875 L39.4964 407.1875 ZM34.887 406.375 C34.9652 405.2188 35.6839 404.4531 36.6839 404.4531 C37.7152 404.4531 38.4183 405.25 38.4183 406.375 L34.887 406.375 ZM40.8403 403.7188 L40.8403 410 L41.856 410 L41.856 406.7344 C41.856 405.2188 42.481 404.5469 43.8716 404.5938 L43.8716 403.5625 C43.6997 403.5469 43.606 403.5312 43.481 403.5312 C42.8247 403.5312 42.3403 403.9219 41.7622 404.8594 L41.7622 403.7188 L40.8403 403.7188 ZM50.1645 407.1875 C50.1645 406.2344 50.0864 405.6562 49.9145 405.1875 C49.5082 404.1562 48.5395 403.5312 47.3676 403.5312 C45.6176 403.5312 44.4926 404.8594 44.4926 406.9375 C44.4926 409.0156 45.5707 410.2812 47.352 410.2812 C48.7895 410.2812 49.7739 409.4531 50.0395 408.0938 L49.0239 408.0938 C48.7426 408.9219 48.1801 409.3594 47.3832 409.3594 C46.7426 409.3594 46.2114 409.0625 45.8676 408.5312 C45.6332 408.1719 45.5395 407.8125 45.5395 407.1875 L50.1645 407.1875 ZM45.5551 406.375 C45.6332 405.2188 46.352 404.4531 47.352 404.4531 C48.3832 404.4531 49.0864 405.25 49.0864 406.375 L45.5551 406.375 ZM56.6178 401.25 L55.6178 401.25 L55.6178 404.5 C55.2115 403.875 54.5397 403.5312 53.6959 403.5312 C52.0553 403.5312 50.9928 404.8438 50.9928 406.8438 C50.9928 408.9688 52.024 410.2812 53.7272 410.2812 C54.5865 410.2812 55.1959 409.9531 55.7272 409.1719 L55.7272 410 L56.6178 410 L56.6178 401.25 ZM53.8678 404.4688 C54.9459 404.4688 55.6178 405.4219 55.6178 406.9219 C55.6178 408.375 54.9303 409.3438 53.8678 409.3438 C52.774 409.3438 52.0397 408.375 52.0397 406.9062 C52.0397 405.4375 52.774 404.4688 53.8678 404.4688 ZM61.329 401.25 L61.329 410 L62.2352 410 L62.2352 409.2031 C62.7196 409.9219 63.3446 410.2812 64.2352 410.2812 C65.8915 410.2812 66.9696 408.9219 66.9696 406.8281 C66.9696 404.7969 65.9384 403.5312 64.2821 403.5312 C63.4071 403.5312 62.7977 403.8594 62.329 404.5625 L62.329 401.25 L61.329 401.25 ZM64.079 404.4688 C65.204 404.4688 65.9227 405.4375 65.9227 406.9375 C65.9227 408.375 65.1727 409.3438 64.079 409.3438 C63.0165 409.3438 62.329 408.375 62.329 406.9062 C62.329 405.4219 63.0165 404.4688 64.079 404.4688 ZM72.0166 403.7188 L70.2823 408.6094 L68.6729 403.7188 L67.5948 403.7188 L69.7198 410.0312 L69.3448 411.0156 C69.1729 411.4688 68.9541 411.625 68.5323 411.625 C68.376 411.625 68.2198 411.6094 68.001 411.5625 L68.001 412.4531 C68.2198 412.5625 68.4229 412.6094 68.6729 412.6094 C69.001 412.6094 69.3448 412.5156 69.6104 412.3125 C69.9229 412.0938 70.1104 411.8281 70.2979 411.3125 L73.0948 403.7188 L72.0166 403.7188 ZM81.3527 403.7188 L79.6183 408.6094 L78.009 403.7188 L76.9308 403.7188 L79.0558 410.0312 L78.6808 411.0156 C78.509 411.4688 78.2902 411.625 77.8683 411.625 C77.7121 411.625 77.5558 411.6094 77.3371 411.5625 L77.3371 412.4531 C77.5558 412.5625 77.759 412.6094 78.009 412.6094 C78.3371 412.6094 78.6808 412.5156 78.9465 412.3125 C79.259 412.0938 79.4465 411.8281 79.634 411.3125 L82.4308 403.7188 L81.3527 403.7188 ZM84.8996 406.0156 L89.0715 406.0156 L89.0715 405.0312 L84.8996 405.0312 L84.8996 402.2344 L89.6496 402.2344 L89.6496 401.25 L83.7746 401.25 L83.7746 410 L84.8996 410 L84.8996 406.0156 ZM91.8254 403.7188 L90.8254 403.7188 L90.8254 410 L91.8254 410 L91.8254 403.7188 ZM91.8254 401.25 L90.8254 401.25 L90.8254 402.5156 L91.8254 402.5156 L91.8254 401.25 ZM94.5207 401.25 L93.5051 401.25 L93.5051 410 L94.5207 410 L94.5207 401.25 ZM101.5128 407.1875 C101.5128 406.2344 101.4347 405.6562 101.2628 405.1875 C100.8566 404.1562 99.8878 403.5312 98.716 403.5312 C96.966 403.5312 95.841 404.8594 95.841 406.9375 C95.841 409.0156 96.9191 410.2812 98.7003 410.2812 C100.1378 410.2812 101.1222 409.4531 101.3878 408.0938 L100.3722 408.0938 C100.091 408.9219 99.5285 409.3594 98.7316 409.3594 C98.091 409.3594 97.5597 409.0625 97.216 408.5312 C96.9816 408.1719 96.8878 407.8125 96.8878 407.1875 L101.5128 407.1875 ZM96.9035 406.375 C96.9816 405.2188 97.7003 404.4531 98.7003 404.4531 C99.7316 404.4531 100.4347 405.25 100.4347 406.375 L96.9035 406.375 ZM107.2786 405.4688 C107.2786 404.2344 106.4505 403.5312 104.9974 403.5312 C103.5443 403.5312 102.5911 404.2812 102.5911 405.4531 C102.5911 406.4375 103.0911 406.9062 104.5911 407.2656 L105.513 407.4844 C106.2161 407.6562 106.4974 407.9062 106.4974 408.3594 C106.4974 408.9531 105.9036 409.3594 105.0286 409.3594 C104.4818 409.3594 104.0286 409.2031 103.7786 408.9375 C103.6224 408.75 103.5599 408.5781 103.4974 408.125 L102.4349 408.125 C102.4818 409.5781 103.2943 410.2812 104.9505 410.2812 C106.5286 410.2812 107.5443 409.5 107.5443 408.2812 C107.5443 407.3438 107.013 406.8281 105.763 406.5312 L104.7943 406.2969 C103.9818 406.1094 103.638 405.8438 103.638 405.4062 C103.638 404.8125 104.1536 404.4531 104.9661 404.4531 C105.7786 404.4531 106.2005 404.7969 106.2318 405.4688 L107.2786 405.4688 Z" stroke="none" clip-path="url(#clipPath1)"/>
    </g>
    <g fill="rgb(42,42,42)" transform="matrix(0.8,0,0,0.8,7.7,7.8)" stroke="rgb(42,42,42)">
      <rect x="0" width="264" height="152.8672" y="238.9119" clip-path="url(#clipPath2)" stroke="none"/>
    </g>
    <g fill="rgb(23,101,180)" stroke-miterlimit="1.45" transform="matrix(0.8,0,0,0.8,7.7,7.8)" stroke-linecap="butt" stroke="rgb(23,101,180)">
      <rect fill="none" x="0" width="264" height="152.8672" y="238.9119" clip-path="url(#clipPath2)"/>
    </g>
    <g font-size="13px" stroke-linecap="butt" transform="matrix(0.8,0,0,0.8,7.7,7.8)" fill="rgb(221,221,221)" font-family="'Inter'" stroke="rgb(221,221,221)" stroke-miterlimit="1.45">
      <text x="110" xml:space="preserve" y="257.5057" clip-path="url(#clipPath2)" stroke="none">admins</text>
    </g>
    <g fill="rgb(23,101,180)" transform="matrix(0.8,0,0,0.8,7.7,7.8)" stroke="rgb(23,101,180)">
      <line y2="264" fill="none" x1="1" clip-path="url(#clipPath2)" x2="263" y1="264"/>
    </g>
    <g stroke-linecap="round" transform="matrix(0.5333,0,0,0.5333,10.9,221.9159)" fill="silver" image-rendering="optimizeQuality" stroke-linejoin="round" stroke="silver" stroke-width="2" stroke-miterlimit="4">
      <path fill="none" d="M12.4 2.7 C13.3 1.8 14.9 1.8 15.8 2.7 L21.3 8.2 C22.2 9.1 22.2 10.7 21.3 11.6 L17.6 15.3 C16.7 16.2 15.1 16.2 14.2 15.3 L8.7 9.8 C7.8 8.9 7.8 7.3 8.7 6.4 Z" clip-path="url(#clipPath4)"/>
    </g>
    <g stroke-linecap="round" transform="matrix(0.5333,0,0,0.5333,10.9,221.9159)" fill="silver" image-rendering="optimizeQuality" stroke-linejoin="round" stroke="silver" stroke-width="2" stroke-miterlimit="4">
      <path fill="none" d="M14 7 L17 10" clip-path="url(#clipPath4)"/>
    </g>
    <g stroke-linecap="round" transform="matrix(0.5333,0,0,0.5333,10.9,221.9159)" fill="silver" image-rendering="optimizeQuality" stroke-linejoin="round" stroke="silver" stroke-width="2" stroke-miterlimit="4">
      <path fill="none" d="M9.4 10.6 L2 18 L2 21 C2 21.6 2.4 22 3 22 L7 22 L7 19 L10 19 L10 16 L12 16 L13.4 14.6" clip-path="url(#clipPath4)"/>
    </g>
    <g stroke-linecap="butt" transform="matrix(0.8,0,0,0.8,7.7,7.8)" fill="rgb(221,221,221)" font-family="'Inter'" stroke="rgb(221,221,221)" font-weight="bold" stroke-miterlimit="1.45">
      <text x="26" xml:space="preserve" y="282.2696" clip-path="url(#clipPath2)" stroke="none">id</text>
    </g>
    <g fill="rgb(221,221,221)" stroke-miterlimit="1.45" font-family="'Inter'" transform="matrix(0.8,0,0,0.8,7.7,7.8)" stroke-linecap="butt" stroke="rgb(221,221,221)">
      <text x="92" xml:space="preserve" y="282.2696" clip-path="url(#clipPath2)" stroke="none">SERIAL</text>
      <text x="26" xml:space="preserve" y="302.792" clip-path="url(#clipPath2)" font-weight="bold" stroke="none">nombre</text>
      <text x="92" xml:space="preserve" y="302.792" clip-path="url(#clipPath2)" stroke="none">CHARACTER VARYING(64)</text>
      <text x="26" xml:space="preserve" y="323.3143" clip-path="url(#clipPath2)" font-weight="bold" stroke="none">apellido_1</text>
      <text x="92" xml:space="preserve" y="323.3143" clip-path="url(#clipPath2)" stroke="none">CHARACTER VARYING(64)</text>
      <text x="26" xml:space="preserve" y="343.8367" clip-path="url(#clipPath2)" font-weight="bold" stroke="none">apellido_2</text>
      <text x="92" xml:space="preserve" y="343.8367" clip-path="url(#clipPath2)" stroke="none">CHARACTER VARYING(64)</text>
      <text x="26" xml:space="preserve" y="364.3591" clip-path="url(#clipPath2)" font-weight="bold" stroke="none">email</text>
      <text x="92" xml:space="preserve" y="364.3591" clip-path="url(#clipPath2)" stroke="none">CHARACTER VARYING(64)</text>
      <text x="26" xml:space="preserve" y="384.8814" clip-path="url(#clipPath2)" font-weight="bold" stroke="none">pswd</text>
      <text x="92" xml:space="preserve" y="384.8814" clip-path="url(#clipPath2)" stroke="none">CHARACTER VARYING(128)</text>
    </g>
    <g fill="rgb(42,42,42)" transform="matrix(0.8,0,0,0.8,7.7,7.8)" stroke="rgb(42,42,42)">
      <rect x="309" width="280" height="91.3001" y="238.9119" clip-path="url(#clipPath2)" stroke="none"/>
    </g>
    <g fill="rgb(23,101,180)" stroke-miterlimit="1.45" transform="matrix(0.8,0,0,0.8,7.7,7.8)" stroke-linecap="butt" stroke="rgb(23,101,180)">
      <rect fill="none" x="309" width="280" height="91.3001" y="238.9119" clip-path="url(#clipPath2)"/>
    </g>
    <g font-size="13px" stroke-linecap="butt" transform="matrix(0.8,0,0,0.8,7.7,7.8)" fill="rgb(221,221,221)" font-family="'Inter'" stroke="rgb(221,221,221)" stroke-miterlimit="1.45">
      <text x="400.5" xml:space="preserve" y="257.5057" clip-path="url(#clipPath2)" stroke="none">async_sessions</text>
    </g>
    <g fill="rgb(23,101,180)" transform="matrix(0.8,0,0,0.8,7.7,7.8)" stroke="rgb(23,101,180)">
      <line y2="264" fill="none" x1="310" clip-path="url(#clipPath2)" x2="588" y1="264"/>
    </g>
    <g stroke-linecap="round" transform="matrix(0.5333,0,0,0.5333,258.1,221.9159)" fill="silver" image-rendering="optimizeQuality" stroke-linejoin="round" stroke="silver" stroke-width="2" stroke-miterlimit="4">
      <path fill="none" d="M12.4 2.7 C13.3 1.8 14.9 1.8 15.8 2.7 L21.3 8.2 C22.2 9.1 22.2 10.7 21.3 11.6 L17.6 15.3 C16.7 16.2 15.1 16.2 14.2 15.3 L8.7 9.8 C7.8 8.9 7.8 7.3 8.7 6.4 Z" clip-path="url(#clipPath5)"/>
    </g>
    <g stroke-linecap="round" transform="matrix(0.5333,0,0,0.5333,258.1,221.9159)" fill="silver" image-rendering="optimizeQuality" stroke-linejoin="round" stroke="silver" stroke-width="2" stroke-miterlimit="4">
      <path fill="none" d="M14 7 L17 10" clip-path="url(#clipPath5)"/>
    </g>
    <g stroke-linecap="round" transform="matrix(0.5333,0,0,0.5333,258.1,221.9159)" fill="silver" image-rendering="optimizeQuality" stroke-linejoin="round" stroke="silver" stroke-width="2" stroke-miterlimit="4">
      <path fill="none" d="M9.4 10.6 L2 18 L2 21 C2 21.6 2.4 22 3 22 L7 22 L7 19 L10 19 L10 16 L12 16 L13.4 14.6" clip-path="url(#clipPath5)"/>
    </g>
    <g stroke-linecap="butt" transform="matrix(0.8,0,0,0.8,7.7,7.8)" fill="rgb(221,221,221)" font-family="'Inter'" stroke="rgb(221,221,221)" font-weight="bold" stroke-miterlimit="1.45">
      <text x="335" xml:space="preserve" y="282.2696" clip-path="url(#clipPath2)" stroke="none">id</text>
    </g>
    <g fill="rgb(221,221,221)" stroke-miterlimit="1.45" font-family="'Inter'" transform="matrix(0.8,0,0,0.8,7.7,7.8)" stroke-linecap="butt" stroke="rgb(221,221,221)">
      <text x="386" xml:space="preserve" y="282.2696" clip-path="url(#clipPath2)" stroke="none">CHARACTER VARYING</text>
      <text x="335" xml:space="preserve" y="302.792" clip-path="url(#clipPath2)" stroke="none">expires</text>
      <text x="386" xml:space="preserve" y="302.792" clip-path="url(#clipPath2)" stroke="none">TIMESTAMP(6) WITH TIME ZONE</text>
      <text x="335" xml:space="preserve" y="323.3143" clip-path="url(#clipPath2)" font-weight="bold" stroke="none">session</text>
      <text x="386" xml:space="preserve" y="323.3143" clip-path="url(#clipPath2)" stroke="none">TEXT</text>
    </g>
    <g fill="rgb(42,42,42)" transform="matrix(0.8,0,0,0.8,7.7,7.8)" stroke="rgb(42,42,42)">
      <rect x="0" width="244" height="70.7777" y="436.7791" clip-path="url(#clipPath2)" stroke="none"/>
    </g>
    <g fill="rgb(23,101,180)" stroke-miterlimit="1.45" transform="matrix(0.8,0,0,0.8,7.7,7.8)" stroke-linecap="butt" stroke="rgb(23,101,180)">
      <rect fill="none" x="0" width="244" height="70.7777" y="436.7791" clip-path="url(#clipPath2)"/>
    </g>
    <g font-size="13px" stroke-linecap="butt" transform="matrix(0.8,0,0,0.8,7.7,7.8)" fill="rgb(221,221,221)" font-family="'Inter'" stroke="rgb(221,221,221)" stroke-miterlimit="1.45">
      <text x="97.5" xml:space="preserve" y="455.3729" clip-path="url(#clipPath2)" stroke="none">motivos</text>
    </g>
    <g fill="rgb(23,101,180)" transform="matrix(0.8,0,0,0.8,7.7,7.8)" stroke="rgb(23,101,180)">
      <line y2="462" fill="none" x1="1" clip-path="url(#clipPath2)" x2="243" y1="462"/>
    </g>
    <g stroke-linecap="round" transform="matrix(0.5333,0,0,0.5333,10.9,380.2097)" fill="silver" image-rendering="optimizeQuality" stroke-linejoin="round" stroke="silver" stroke-width="2" stroke-miterlimit="4">
      <path fill="none" d="M12.4 2.7 C13.3 1.8 14.9 1.8 15.8 2.7 L21.3 8.2 C22.2 9.1 22.2 10.7 21.3 11.6 L17.6 15.3 C16.7 16.2 15.1 16.2 14.2 15.3 L8.7 9.8 C7.8 8.9 7.8 7.3 8.7 6.4 Z" clip-path="url(#clipPath4)"/>
    </g>
    <g stroke-linecap="round" transform="matrix(0.5333,0,0,0.5333,10.9,380.2097)" fill="silver" image-rendering="optimizeQuality" stroke-linejoin="round" stroke="silver" stroke-width="2" stroke-miterlimit="4">
      <path fill="none" d="M14 7 L17 10" clip-path="url(#clipPath4)"/>
    </g>
    <g stroke-linecap="round" transform="matrix(0.5333,0,0,0.5333,10.9,380.2097)" fill="silver" image-rendering="optimizeQuality" stroke-linejoin="round" stroke="silver" stroke-width="2" stroke-miterlimit="4">
      <path fill="none" d="M9.4 10.6 L2 18 L2 21 C2 21.6 2.4 22 3 22 L7 22 L7 19 L10 19 L10 16 L12 16 L13.4 14.6" clip-path="url(#clipPath4)"/>
    </g>
    <g stroke-linecap="butt" transform="matrix(0.8,0,0,0.8,7.7,7.8)" fill="rgb(221,221,221)" font-family="'Inter'" stroke="rgb(221,221,221)" font-weight="bold" stroke-miterlimit="1.45">
      <text x="26" xml:space="preserve" y="480.1368" clip-path="url(#clipPath2)" stroke="none">id</text>
    </g>
    <g fill="rgb(221,221,221)" stroke-miterlimit="1.45" font-family="'Inter'" transform="matrix(0.8,0,0,0.8,7.7,7.8)" stroke-linecap="butt" stroke="rgb(221,221,221)">
      <text x="72" xml:space="preserve" y="480.1368" clip-path="url(#clipPath2)" stroke="none">SERIAL</text>
      <text x="26" xml:space="preserve" y="500.6591" clip-path="url(#clipPath2)" font-weight="bold" stroke="none">motivo</text>
      <text x="72" xml:space="preserve" y="500.6591" clip-path="url(#clipPath2)" stroke="none">CHARACTER VARYING(128)</text>
    </g>
    <g fill="rgb(42,42,42)" transform="matrix(0.8,0,0,0.8,7.7,7.8)" stroke="rgb(42,42,42)">
      <rect x="351" width="271" height="193.9119" y="0" clip-path="url(#clipPath2)" stroke="none"/>
    </g>
    <g fill="rgb(23,101,180)" stroke-miterlimit="1.45" transform="matrix(0.8,0,0,0.8,7.7,7.8)" stroke-linecap="butt" stroke="rgb(23,101,180)">
      <rect fill="none" x="351" width="271" height="193.9119" y="0" clip-path="url(#clipPath2)"/>
    </g>
    <g font-size="13px" stroke-linecap="butt" transform="matrix(0.8,0,0,0.8,7.7,7.8)" fill="rgb(221,221,221)" font-family="'Inter'" stroke="rgb(221,221,221)" stroke-miterlimit="1.45">
      <text x="457.5" xml:space="preserve" y="18.5938" clip-path="url(#clipPath2)" stroke="none">personas</text>
    </g>
    <g fill="rgb(23,101,180)" transform="matrix(0.8,0,0,0.8,7.7,7.8)" stroke="rgb(23,101,180)">
      <line y2="25" fill="none" x1="352" clip-path="url(#clipPath2)" x2="621" y1="25"/>
    </g>
    <g stroke-linecap="butt" transform="matrix(0.8,0,0,0.8,7.7,7.8)" fill="rgb(221,221,221)" font-family="'Inter'" stroke="rgb(221,221,221)" font-weight="bold" stroke-miterlimit="1.45">
      <text x="377" xml:space="preserve" y="43.3577" clip-path="url(#clipPath2)" stroke="none">nombre</text>
      <text x="450" xml:space="preserve" y="43.3577" clip-path="url(#clipPath2)" font-weight="normal" stroke="none">CHARACTER VARYING(64)</text>
      <text x="377" xml:space="preserve" y="63.8801" clip-path="url(#clipPath2)" stroke="none">apellido_1</text>
      <text x="450" xml:space="preserve" y="63.8801" clip-path="url(#clipPath2)" font-weight="normal" stroke="none">CHARACTER VARYING(64)</text>
      <text x="377" xml:space="preserve" y="84.4025" clip-path="url(#clipPath2)" stroke="none">apellido_2</text>
      <text x="450" xml:space="preserve" y="84.4025" clip-path="url(#clipPath2)" font-weight="normal" stroke="none">CHARACTER VARYING(64)</text>
    </g>
    <g stroke-linecap="round" transform="matrix(0.5333,0,0,0.5333,291.7,80.0401)" fill="silver" image-rendering="optimizeQuality" stroke-linejoin="round" stroke="silver" stroke-width="2" stroke-miterlimit="4">
      <path fill="none" d="M12.4 2.7 C13.3 1.8 14.9 1.8 15.8 2.7 L21.3 8.2 C22.2 9.1 22.2 10.7 21.3 11.6 L17.6 15.3 C16.7 16.2 15.1 16.2 14.2 15.3 L8.7 9.8 C7.8 8.9 7.8 7.3 8.7 6.4 Z" clip-path="url(#clipPath5)"/>
    </g>
    <g stroke-linecap="round" transform="matrix(0.5333,0,0,0.5333,291.7,80.0401)" fill="silver" image-rendering="optimizeQuality" stroke-linejoin="round" stroke="silver" stroke-width="2" stroke-miterlimit="4">
      <path fill="none" d="M14 7 L17 10" clip-path="url(#clipPath5)"/>
    </g>
    <g stroke-linecap="round" transform="matrix(0.5333,0,0,0.5333,291.7,80.0401)" fill="silver" image-rendering="optimizeQuality" stroke-linejoin="round" stroke="silver" stroke-width="2" stroke-miterlimit="4">
      <path fill="none" d="M9.4 10.6 L2 18 L2 21 C2 21.6 2.4 22 3 22 L7 22 L7 19 L10 19 L10 16 L12 16 L13.4 14.6" clip-path="url(#clipPath5)"/>
    </g>
    <g stroke-linecap="butt" transform="matrix(0.8,0,0,0.8,7.7,7.8)" fill="rgb(221,221,221)" font-family="'Inter'" stroke="rgb(221,221,221)" font-weight="bold" stroke-miterlimit="1.45">
      <text x="377" xml:space="preserve" y="104.9248" clip-path="url(#clipPath2)" stroke="none">rut</text>
    </g>
    <g fill="rgb(221,221,221)" stroke-miterlimit="1.45" font-family="'Inter'" transform="matrix(0.8,0,0,0.8,7.7,7.8)" stroke-linecap="butt" stroke="rgb(221,221,221)">
      <text x="450" xml:space="preserve" y="104.9248" clip-path="url(#clipPath2)" stroke="none">CHARACTER VARYING(10)</text>
      <text x="377" xml:space="preserve" y="125.4472" clip-path="url(#clipPath2)" font-weight="bold" stroke="none">print_path</text>
      <text x="450" xml:space="preserve" y="125.4472" clip-path="url(#clipPath2)" stroke="none">CHARACTER VARYING(128)</text>
      <text x="377" xml:space="preserve" y="145.9695" clip-path="url(#clipPath2)" font-weight="bold" stroke="none">correo_uai</text>
      <text x="450" xml:space="preserve" y="145.9695" clip-path="url(#clipPath2)" stroke="none">CHARACTER VARYING(64)</text>
      <text x="377" xml:space="preserve" y="166.4919" clip-path="url(#clipPath2)" font-weight="bold" stroke="none">is_disabled</text>
      <text x="450" xml:space="preserve" y="166.4919" clip-path="url(#clipPath2)" stroke="none">BOOLEAN</text>
      <text x="377" xml:space="preserve" y="187.0142" clip-path="url(#clipPath2)" font-weight="bold" stroke="none">rol</text>
      <text x="450" xml:space="preserve" y="187.0142" clip-path="url(#clipPath2)" stroke="none">CHARACTER VARYING(64)</text>
    </g>
    <g fill="rgb(42,42,42)" transform="matrix(0.8,0,0,0.8,7.7,7.8)" stroke="rgb(42,42,42)">
      <rect x="0" width="291" height="132.3448" y="41.0447" clip-path="url(#clipPath2)" stroke="none"/>
    </g>
    <g fill="rgb(23,101,180)" stroke-miterlimit="1.45" transform="matrix(0.8,0,0,0.8,7.7,7.8)" stroke-linecap="butt" stroke="rgb(23,101,180)">
      <rect fill="none" x="0" width="291" height="132.3448" y="41.0447" clip-path="url(#clipPath2)"/>
    </g>
    <g font-size="13px" stroke-linecap="butt" transform="matrix(0.8,0,0,0.8,7.7,7.8)" fill="rgb(221,221,221)" font-family="'Inter'" stroke="rgb(221,221,221)" stroke-miterlimit="1.45">
      <text x="117.5" xml:space="preserve" y="59.6385" clip-path="url(#clipPath2)" stroke="none">registros</text>
    </g>
    <g fill="rgb(23,101,180)" transform="matrix(0.8,0,0,0.8,7.7,7.8)" stroke="rgb(23,101,180)">
      <line y2="66" fill="none" x1="1" clip-path="url(#clipPath2)" x2="290" y1="66"/>
    </g>
    <g stroke-linecap="round" transform="matrix(0.5333,0,0,0.5333,10.9,63.6222)" fill="silver" image-rendering="optimizeQuality" stroke-linejoin="round" stroke="silver" stroke-width="2" stroke-miterlimit="4">
      <path fill="none" d="M12.4 2.7 C13.3 1.8 14.9 1.8 15.8 2.7 L21.3 8.2 C22.2 9.1 22.2 10.7 21.3 11.6 L17.6 15.3 C16.7 16.2 15.1 16.2 14.2 15.3 L8.7 9.8 C7.8 8.9 7.8 7.3 8.7 6.4 Z" clip-path="url(#clipPath4)"/>
    </g>
    <g stroke-linecap="round" transform="matrix(0.5333,0,0,0.5333,10.9,63.6222)" fill="silver" image-rendering="optimizeQuality" stroke-linejoin="round" stroke="silver" stroke-width="2" stroke-miterlimit="4">
      <path fill="none" d="M14 7 L17 10" clip-path="url(#clipPath4)"/>
    </g>
    <g stroke-linecap="round" transform="matrix(0.5333,0,0,0.5333,10.9,63.6222)" fill="silver" image-rendering="optimizeQuality" stroke-linejoin="round" stroke="silver" stroke-width="2" stroke-miterlimit="4">
      <path fill="none" d="M9.4 10.6 L2 18 L2 21 C2 21.6 2.4 22 3 22 L7 22 L7 19 L10 19 L10 16 L12 16 L13.4 14.6" clip-path="url(#clipPath4)"/>
    </g>
    <g stroke-linecap="butt" transform="matrix(0.8,0,0,0.8,7.7,7.8)" fill="rgb(221,221,221)" font-family="'Inter'" stroke="rgb(221,221,221)" font-weight="bold" stroke-miterlimit="1.45">
      <text x="26" xml:space="preserve" y="84.4025" clip-path="url(#clipPath2)" stroke="none">id</text>
    </g>
    <g fill="rgb(221,221,221)" stroke-miterlimit="1.45" font-family="'Inter'" transform="matrix(0.8,0,0,0.8,7.7,7.8)" stroke-linecap="butt" stroke="rgb(221,221,221)">
      <text x="72" xml:space="preserve" y="84.4025" clip-path="url(#clipPath2)" stroke="none">SERIAL</text>
      <text x="26" xml:space="preserve" y="104.9248" clip-path="url(#clipPath2)" font-weight="bold" stroke="none">rut</text>
      <text x="72" xml:space="preserve" y="104.9248" clip-path="url(#clipPath2)" stroke="none">CHARACTER VARYING(10)</text>
    </g>
    <g stroke-linecap="round" transform="matrix(0.5333,0,0,0.5333,222.9,80.0401)" fill="silver" image-rendering="optimizeQuality" stroke-linejoin="round" stroke="silver" stroke-width="2" stroke-miterlimit="4">
      <path fill="none" d="M7 7 L17 7 L17 17" clip-path="url(#clipPath4)"/>
    </g>
    <g stroke-linecap="round" transform="matrix(0.5333,0,0,0.5333,222.9,80.0401)" fill="silver" image-rendering="optimizeQuality" stroke-linejoin="round" stroke="silver" stroke-width="2" stroke-miterlimit="4">
      <path fill="none" d="M7 17 L17 7" clip-path="url(#clipPath4)"/>
    </g>
    <g stroke-linecap="butt" transform="matrix(0.8,0,0,0.8,7.7,7.8)" fill="rgb(221,221,221)" font-family="'Inter'" stroke="rgb(221,221,221)" font-weight="bold" stroke-miterlimit="1.45">
      <text x="26" xml:space="preserve" y="125.4472" clip-path="url(#clipPath2)" stroke="none">fecha</text>
    </g>
    <g fill="rgb(221,221,221)" stroke-miterlimit="1.45" font-family="'Inter'" transform="matrix(0.8,0,0,0.8,7.7,7.8)" stroke-linecap="butt" stroke="rgb(221,221,221)">
      <text x="72" xml:space="preserve" y="125.4472" clip-path="url(#clipPath2)" stroke="none">TIMESTAMP(6) WITH TIME ZONE</text>
      <text x="26" xml:space="preserve" y="145.9695" clip-path="url(#clipPath2)" font-weight="bold" stroke="none">salida</text>
      <text x="72" xml:space="preserve" y="145.9695" clip-path="url(#clipPath2)" stroke="none">BOOLEAN</text>
      <text x="26" xml:space="preserve" y="166.4919" clip-path="url(#clipPath2)" font-weight="bold" stroke="none">motivo</text>
      <text x="72" xml:space="preserve" y="166.4919" clip-path="url(#clipPath2)" stroke="none">CHARACTER VARYING(20)</text>
    </g>
    <g fill="rgb(42,42,42)" transform="matrix(0.8,0,0,0.8,7.7,7.8)" stroke="rgb(42,42,42)">
      <rect x="289" width="214" height="70.7777" y="436.7791" clip-path="url(#clipPath2)" stroke="none"/>
    </g>
    <g fill="rgb(23,101,180)" stroke-miterlimit="1.45" transform="matrix(0.8,0,0,0.8,7.7,7.8)" stroke-linecap="butt" stroke="rgb(23,101,180)">
      <rect fill="none" x="289" width="214" height="70.7777" y="436.7791" clip-path="url(#clipPath2)"/>
    </g>
    <g font-size="13px" stroke-linecap="butt" transform="matrix(0.8,0,0,0.8,7.7,7.8)" fill="rgb(221,221,221)" font-family="'Inter'" stroke="rgb(221,221,221)" stroke-miterlimit="1.45">
      <text x="380.5" xml:space="preserve" y="455.3729" clip-path="url(#clipPath2)" stroke="none">roles</text>
    </g>
    <g fill="rgb(23,101,180)" transform="matrix(0.8,0,0,0.8,7.7,7.8)" stroke="rgb(23,101,180)">
      <line y2="462" fill="none" x1="290" clip-path="url(#clipPath2)" x2="502" y1="462"/>
    </g>
    <g stroke-linecap="round" transform="matrix(0.5333,0,0,0.5333,242.1,380.2097)" fill="silver" image-rendering="optimizeQuality" stroke-linejoin="round" stroke="silver" stroke-width="2" stroke-miterlimit="4">
      <path fill="none" d="M12.4 2.7 C13.3 1.8 14.9 1.8 15.8 2.7 L21.3 8.2 C22.2 9.1 22.2 10.7 21.3 11.6 L17.6 15.3 C16.7 16.2 15.1 16.2 14.2 15.3 L8.7 9.8 C7.8 8.9 7.8 7.3 8.7 6.4 Z" clip-path="url(#clipPath5)"/>
    </g>
    <g stroke-linecap="round" transform="matrix(0.5333,0,0,0.5333,242.1,380.2097)" fill="silver" image-rendering="optimizeQuality" stroke-linejoin="round" stroke="silver" stroke-width="2" stroke-miterlimit="4">
      <path fill="none" d="M14 7 L17 10" clip-path="url(#clipPath5)"/>
    </g>
    <g stroke-linecap="round" transform="matrix(0.5333,0,0,0.5333,242.1,380.2097)" fill="silver" image-rendering="optimizeQuality" stroke-linejoin="round" stroke="silver" stroke-width="2" stroke-miterlimit="4">
      <path fill="none" d="M9.4 10.6 L2 18 L2 21 C2 21.6 2.4 22 3 22 L7 22 L7 19 L10 19 L10 16 L12 16 L13.4 14.6" clip-path="url(#clipPath5)"/>
    </g>
    <g stroke-linecap="butt" transform="matrix(0.8,0,0,0.8,7.7,7.8)" fill="rgb(221,221,221)" font-family="'Inter'" stroke="rgb(221,221,221)" font-weight="bold" stroke-miterlimit="1.45">
      <text x="315" xml:space="preserve" y="480.1368" clip-path="url(#clipPath2)" stroke="none">id</text>
    </g>
    <g fill="rgb(221,221,221)" stroke-miterlimit="1.45" font-family="'Inter'" transform="matrix(0.8,0,0,0.8,7.7,7.8)" stroke-linecap="butt" stroke="rgb(221,221,221)">
      <text x="336" xml:space="preserve" y="480.1368" clip-path="url(#clipPath2)" stroke="none">SERIAL</text>
      <text x="315" xml:space="preserve" y="500.6591" clip-path="url(#clipPath2)" font-weight="bold" stroke="none">rol</text>
      <text x="336" xml:space="preserve" y="500.6591" clip-path="url(#clipPath2)" stroke="none">CHARACTER VARYING(64)</text>
    </g>
    <g fill="rgb(23,101,180)" stroke-miterlimit="1.45" transform="matrix(0.8,0,0,0.8,7.7,7.8)" stroke-linecap="butt" stroke="rgb(23,101,180)">
      <path fill="none" d="M291.0293 99.5613 L342.9707 99.5613" clip-path="url(#clipPath2)"/>
    </g>
    <g fill="rgb(23,101,180)" stroke-miterlimit="1.45" transform="matrix(0.8,0,0,0.8,7.7,7.8)" stroke-linecap="butt" stroke="rgb(23,101,180)">
      <path d="M350.9707 99.5613 L338.9707 94.5613 L341.9707 99.5613 L338.9707 104.5613 Z" stroke="none" clip-path="url(#clipPath2)"/>
    </g>
  </g>
</svg>
